<svg width="40" height="40" viewBox="0 0 40 40" fill="none" xmlns="http://www.w3.org/2000/svg">
  <g opacity="1">
    <path d="M6.15206 10.486C8.49039 7.95102 12.0287 6.66602 16.6671 6.66602H18.3337V11.3643L16.9937 11.6327C14.7104 12.0893 13.1221 12.9877 12.2721 14.306C11.8285 15.0162 11.577 15.8294 11.5421 16.666H16.6671C17.1091 16.666 17.533 16.8416 17.8456 17.1542C18.1581 17.4667 18.3337 17.8907 18.3337 18.3327V29.9993C18.3337 31.8377 16.8387 33.3327 15.0004 33.3327H5.00039C4.55836 33.3327 4.13444 33.1571 3.82188 32.8445C3.50932 32.532 3.33372 32.108 3.33372 31.666V23.3327L3.33872 18.4677C3.32372 18.2827 3.00706 13.8993 6.15206 10.486ZM33.3337 33.3327H23.3337C22.8917 33.3327 22.4678 33.1571 22.1552 32.8445C21.8427 32.532 21.6671 32.108 21.6671 31.666V23.3327L21.6721 18.4677C21.6571 18.2827 21.3404 13.8993 24.4854 10.486C26.8237 7.95102 30.3621 6.66602 35.0004 6.66602H36.6671V11.3643L35.3271 11.6327C33.0437 12.0893 31.4554 12.9877 30.6054 14.306C30.1619 15.0162 29.9103 15.8294 29.8754 16.666H35.0004C35.4424 16.666 35.8663 16.8416 36.1789 17.1542C36.4915 17.4667 36.6671 17.8907 36.6671 18.3327V29.9993C36.6671 31.8377 35.1721 33.3327 33.3337 33.3327Z" fill="#FF6F61"/>
  </g>
</svg>