<svg width="30" height="30" viewBox="0 0 30 30" fill="none" xmlns="http://www.w3.org/2000/svg">
  <path d="M22.5 25C21.837 25 21.2011 24.7366 20.7322 24.2678C20.2634 23.7989 20 23.163 20 22.5C20 21.837 20.2634 21.2011 20.7322 20.7322C21.2011 20.2634 21.837 20 22.5 20C23.163 20 23.7989 20.2634 24.2678 20.7322C24.7366 21.2011 25 21.837 25 22.5C25 23.163 24.7366 23.7989 24.2678 24.2678C23.7989 24.7366 23.163 25 22.5 25ZM15 25C14.337 25 13.7011 24.7366 13.2322 24.2678C12.7634 23.7989 12.5 23.163 12.5 22.5C12.5 21.837 12.7634 21.2011 13.2322 20.7322C13.7011 20.2634 14.337 20 15 20C15.663 20 16.2989 20.2634 16.7678 20.7322C17.2366 21.2011 17.5 21.837 17.5 22.5C17.5 23.163 17.2366 23.7989 16.7678 24.2678C16.2989 24.7366 15.663 25 15 25ZM7.5 25C6.83696 25 6.20107 24.7366 5.73223 24.2678C5.26339 23.7989 5 23.163 5 22.5C5 21.837 5.26339 21.2011 5.73223 20.7322C6.20107 20.2634 6.83696 20 7.5 20C8.16304 20 8.79893 20.2634 9.26777 20.7322C9.73661 21.2011 10 21.837 10 22.5C10 23.163 9.73661 23.7989 9.26777 24.2678C8.79893 24.7366 8.16304 25 7.5 25ZM22.5 17.5C21.837 17.5 21.2011 17.2366 20.7322 16.7678C20.2634 16.2989 20 15.663 20 15C20 14.337 20.2634 13.7011 20.7322 13.2322C21.2011 12.7634 21.837 12.5 22.5 12.5C23.163 12.5 23.7989 12.7634 24.2678 13.2322C24.7366 13.7011 25 14.337 25 15C25 15.663 24.7366 16.2989 24.2678 16.7678C23.7989 17.2366 23.163 17.5 22.5 17.5ZM15 17.5C14.337 17.5 13.7011 17.2366 13.2322 16.7678C12.7634 16.2989 12.5 15.663 12.5 15C12.5 14.337 12.7634 13.7011 13.2322 13.2322C13.7011 12.7634 14.337 12.5 15 12.5C15.663 12.5 16.2989 12.7634 16.7678 13.2322C17.2366 13.7011 17.5 14.337 17.5 15C17.5 15.663 17.2366 16.2989 16.7678 16.7678C16.2989 17.2366 15.663 17.5 15 17.5ZM7.5 17.5C6.83696 17.5 6.20107 17.2366 5.73223 16.7678C5.26339 16.2989 5 15.663 5 15C5 14.337 5.26339 13.7011 5.73223 13.2322C6.20107 12.7634 6.83696 12.5 7.5 12.5C8.16304 12.5 8.79893 12.7634 9.26777 13.2322C9.73661 13.7011 10 14.337 10 15C10 15.663 9.73661 16.2989 9.26777 16.7678C8.79893 17.2366 8.16304 17.5 7.5 17.5ZM22.5 10C21.837 10 21.2011 9.73661 20.7322 9.26777C20.2634 8.79893 20 8.16304 20 7.5C20 6.83696 20.2634 6.20107 20.7322 5.73223C21.2011 5.26339 21.837 5 22.5 5C23.163 5 23.7989 5.26339 24.2678 5.73223C24.7366 6.20107 25 6.83696 25 7.5C25 8.16304 24.7366 8.79893 24.2678 9.26777C23.7989 9.73661 23.163 10 22.5 10ZM15 10C14.337 10 13.7011 9.73661 13.2322 9.26777C12.7634 8.79893 12.5 8.16304 12.5 7.5C12.5 6.83696 12.7634 6.20107 13.2322 5.73223C13.7011 5.26339 14.337 5 15 5C15.663 5 16.2989 5.26339 16.7678 5.73223C17.2366 6.20107 17.5 6.83696 17.5 7.5C17.5 8.16304 17.2366 8.79893 16.7678 9.26777C16.2989 9.73661 15.663 10 15 10ZM7.5 10C6.83696 10 6.20107 9.73661 5.73223 9.26777C5.26339 8.79893 5 8.16304 5 7.5C5 6.83696 5.26339 6.20107 5.73223 5.73223C6.20107 5.26339 6.83696 5 7.5 5C8.16304 5 8.79893 5.26339 9.26777 5.73223C9.73661 6.20107 10 6.83696 10 7.5C10 8.16304 9.73661 8.79893 9.26777 9.26777C8.79893 9.73661 8.16304 10 7.5 10Z" fill="white"/>
</svg>