<svg width="30" height="30" viewBox="0 0 30 30" fill="none" xmlns="http://www.w3.org/2000/svg">
  <path d="M11.25 6.24916C10.9185 6.24916 10.6005 6.38085 10.3661 6.61527C10.1317 6.84969 10 7.16764 10 7.49916C10 7.83068 10.1317 8.14862 10.3661 8.38304C10.6005 8.61746 10.9185 8.74916 11.25 8.74916C11.5815 8.74916 11.8995 8.61746 12.1339 8.38304C12.3683 8.14862 12.5 7.83068 12.5 7.49916C12.5 7.16764 12.3683 6.84969 12.1339 6.61527C11.8995 6.38085 11.5815 6.24916 11.25 6.24916ZM7.7125 6.24916C7.97075 5.51724 8.44967 4.88345 9.08325 4.43514C9.71683 3.98684 10.4739 3.74609 11.25 3.74609C12.0261 3.74609 12.7832 3.98684 13.4167 4.43514C14.0503 4.88345 14.5292 5.51724 14.7875 6.24916H23.75C24.0815 6.24916 24.3995 6.38085 24.6339 6.61527C24.8683 6.84969 25 7.16764 25 7.49916C25 7.83068 24.8683 8.14862 24.6339 8.38304C24.3995 8.61746 24.0815 8.74916 23.75 8.74916H14.7875C14.5292 9.48107 14.0503 10.1149 13.4167 10.5632C12.7832 11.0115 12.0261 11.2522 11.25 11.2522C10.4739 11.2522 9.71683 11.0115 9.08325 10.5632C8.44967 10.1149 7.97075 9.48107 7.7125 8.74916H6.25C5.91848 8.74916 5.60054 8.61746 5.36612 8.38304C5.1317 8.14862 5 7.83068 5 7.49916C5 7.16764 5.1317 6.84969 5.36612 6.61527C5.60054 6.38085 5.91848 6.24916 6.25 6.24916H7.7125ZM18.75 13.7492C18.4185 13.7492 18.1005 13.8809 17.8661 14.1153C17.6317 14.3497 17.5 14.6676 17.5 14.9992C17.5 15.3307 17.6317 15.6486 17.8661 15.883C18.1005 16.1175 18.4185 16.2492 18.75 16.2492C19.0815 16.2492 19.3995 16.1175 19.6339 15.883C19.8683 15.6486 20 15.3307 20 14.9992C20 14.6676 19.8683 14.3497 19.6339 14.1153C19.3995 13.8809 19.0815 13.7492 18.75 13.7492ZM15.2125 13.7492C15.4708 13.0172 15.9497 12.3834 16.5833 11.9351C17.2168 11.4868 17.9739 11.2461 18.75 11.2461C19.5261 11.2461 20.2832 11.4868 20.9167 11.9351C21.5503 12.3834 22.0292 13.0172 22.2875 13.7492H23.75C24.0815 13.7492 24.3995 13.8809 24.6339 14.1153C24.8683 14.3497 25 14.6676 25 14.9992C25 15.3307 24.8683 15.6486 24.6339 15.883C24.3995 16.1175 24.0815 16.2492 23.75 16.2492H22.2875C22.0292 16.9811 21.5503 17.6149 20.9167 18.0632C20.2832 18.5115 19.5261 18.7522 18.75 18.7522C17.9739 18.7522 17.2168 18.5115 16.5833 18.0632C15.9497 17.6149 15.4708 16.9811 15.2125 16.2492H6.25C5.91848 16.2492 5.60054 16.1175 5.36612 15.883C5.1317 15.6486 5 15.3307 5 14.9992C5 14.6676 5.1317 14.3497 5.36612 14.1153C5.60054 13.8809 5.91848 13.7492 6.25 13.7492H15.2125ZM11.25 21.2492C10.9185 21.2492 10.6005 21.3809 10.3661 21.6153C10.1317 21.8497 10 22.1676 10 22.4992C10 22.8307 10.1317 23.1486 10.3661 23.383C10.6005 23.6175 10.9185 23.7492 11.25 23.7492C11.5815 23.7492 11.8995 23.6175 12.1339 23.383C12.3683 23.1486 12.5 22.8307 12.5 22.4992C12.5 22.1676 12.3683 21.8497 12.1339 21.6153C11.8995 21.3809 11.5815 21.2492 11.25 21.2492ZM7.7125 21.2492C7.97075 20.5172 8.44967 19.8834 9.08325 19.4351C9.71683 18.9868 10.4739 18.7461 11.25 18.7461C12.0261 18.7461 12.7832 18.9868 13.4167 19.4351C14.0503 19.8834 14.5292 20.5172 14.7875 21.2492H23.75C24.0815 21.2492 24.3995 21.3809 24.6339 21.6153C24.8683 21.8497 25 22.1676 25 22.4992C25 22.8307 24.8683 23.1486 24.6339 23.383C24.3995 23.6175 24.0815 23.7492 23.75 23.7492H14.7875C14.5292 24.4811 14.0503 25.1149 13.4167 25.5632C12.7832 26.0115 12.0261 26.2522 11.25 26.2522C10.4739 26.2522 9.71683 26.0115 9.08325 25.5632C8.44967 25.1149 7.97075 24.4811 7.7125 23.7492H6.25C5.91848 23.7492 5.60054 23.6175 5.36612 23.383C5.1317 23.1486 5 22.8307 5 22.4992C5 22.1676 5.1317 21.8497 5.36612 21.6153C5.60054 21.3809 5.91848 21.2492 6.25 21.2492H7.7125Z" fill="white"/>
</svg>