<svg width="120" height="56" viewBox="0 0 120 56" fill="none" xmlns="http://www.w3.org/2000/svg">
<path d="M17.2543 0.928786L19.4122 16.9513L12.7085 35.729L3.54479 39.9493L17.2543 0.928786Z" fill="#FF6F61"/>
<path d="M17.2784 0.816585L15.754 19.2424L25.3325 48.5128L33.0638 48.5128L17.2784 0.816585Z" fill="#FF6F61"/>
<path d="M18.8291 34.3643L19.6283 36.7399L1.82989 44.9399L2.96765 41.7405L18.8291 34.3643Z" fill="#FF6F61"/>
<path d="M20.008 38.008L20.7696 40.4011L3.25478 48.5062L0.569709 48.5062L1.22728 46.6679L20.008 38.008Z" fill="#FF6F61"/>
<path d="M36.376 55.744L49.864 25.696H54.76L41.656 55.744H36.376ZM41.608 46.144L31.72 25.696H37.768L45.736 43.408L41.608 46.144ZM61.0848 16.768H66.5088V25.696H71.7888V29.92H66.5088V46H61.0848V29.92H57.6288V25.696H61.0848V16.768ZM75.391 35.632C75.391 33.584 75.871 31.744 76.831 30.112C77.791 28.448 79.135 27.152 80.863 26.224C82.623 25.264 84.607 24.784 86.815 24.784C89.087 24.784 91.055 25.264 92.719 26.224C94.415 27.152 95.727 28.448 96.655 30.112C97.583 31.744 98.047 33.584 98.047 35.632C98.047 37.68 97.583 39.536 96.655 41.2C95.727 42.832 94.415 44.128 92.719 45.088C91.055 46.048 89.071 46.528 86.767 46.528C84.591 46.528 82.639 46.096 80.911 45.232C79.183 44.336 77.823 43.072 76.831 41.44C75.871 39.808 75.391 37.872 75.391 35.632ZM80.815 35.68C80.815 36.864 81.071 37.952 81.583 38.944C82.095 39.904 82.799 40.672 83.695 41.248C84.591 41.824 85.583 42.112 86.671 42.112C87.855 42.112 88.879 41.824 89.743 41.248C90.639 40.672 91.327 39.904 91.807 38.944C92.319 37.952 92.575 36.864 92.575 35.68C92.575 34.464 92.319 33.376 91.807 32.416C91.327 31.424 90.639 30.64 89.743 30.064C88.879 29.488 87.855 29.2 86.671 29.2C85.551 29.2 84.543 29.504 83.647 30.112C82.783 30.688 82.095 31.456 81.583 32.416C81.071 33.376 80.815 34.464 80.815 35.68ZM108.544 25.696L109.024 31.456L108.832 30.64C109.408 29.424 110.192 28.384 111.184 27.52C112.208 26.624 113.248 25.952 114.304 25.504C115.36 25.024 116.224 24.784 116.896 24.784L116.656 30.16C115.12 30.032 113.776 30.32 112.624 31.024C111.504 31.696 110.624 32.592 109.984 33.712C109.376 34.832 109.072 36.016 109.072 37.264V46H103.696V25.696H108.544Z" fill="white"/>
</svg>
