<svg width="158" height="67" viewBox="0 0 158 67" fill="none" xmlns="http://www.w3.org/2000/svg">
<path d="M19.7554 1.05699L22.226 19.2962L14.5508 40.6717L4.05898 45.4759L19.7554 1.05699Z" fill="#FF6F61"/>
<path d="M19.7834 0.929558L18.0381 21.9046L29.0047 55.2244L37.8566 55.2244L19.7834 0.929558Z" fill="#FF6F61"/>
<path d="M21.5586 39.1191L22.4737 41.8235L2.0957 51.1579L3.39835 47.5158L21.5586 39.1191Z" fill="#FF6F61"/>
<path d="M22.9078 43.2651L23.7799 45.9893L3.72664 55.2157L0.652429 55.2157L1.4053 53.1231L22.9078 43.2651Z" fill="#FF6F61"/>
<path d="M42.72 66.18L59.58 28.62H65.7L49.32 66.18H42.72ZM49.26 54.18L36.9 28.62H44.46L54.42 50.76L49.26 54.18ZM73.6059 17.46H80.3859V28.62H86.9859V33.9H80.3859V54H73.6059V33.9H69.2859V28.62H73.6059V17.46ZM91.4888 41.04C91.4888 38.48 92.0888 36.18 93.2888 34.14C94.4888 32.06 96.1688 30.44 98.3288 29.28C100.529 28.08 103.009 27.48 105.769 27.48C108.609 27.48 111.069 28.08 113.149 29.28C115.269 30.44 116.909 32.06 118.069 34.14C119.229 36.18 119.809 38.48 119.809 41.04C119.809 43.6 119.229 45.92 118.069 48C116.909 50.04 115.269 51.66 113.149 52.86C111.069 54.06 108.589 54.66 105.709 54.66C102.989 54.66 100.549 54.12 98.3888 53.04C96.2288 51.92 94.5288 50.34 93.2888 48.3C92.0888 46.26 91.4888 43.84 91.4888 41.04ZM98.2688 41.1C98.2688 42.58 98.5888 43.94 99.2288 45.18C99.8688 46.38 100.749 47.34 101.869 48.06C102.989 48.78 104.229 49.14 105.589 49.14C107.069 49.14 108.349 48.78 109.429 48.06C110.549 47.34 111.409 46.38 112.009 45.18C112.649 43.94 112.969 42.58 112.969 41.1C112.969 39.58 112.649 38.22 112.009 37.02C111.409 35.78 110.549 34.8 109.429 34.08C108.349 33.36 107.069 33 105.589 33C104.189 33 102.929 33.38 101.809 34.14C100.729 34.86 99.8688 35.82 99.2288 37.02C98.5888 38.22 98.2688 39.58 98.2688 41.1ZM132.93 28.62L133.53 35.82L133.29 34.8C134.01 33.28 134.99 31.98 136.23 30.9C137.51 29.78 138.81 28.94 140.13 28.38C141.45 27.78 142.53 27.48 143.37 27.48L143.07 34.2C141.15 34.04 139.47 34.4 138.03 35.28C136.63 36.12 135.53 37.24 134.73 38.64C133.97 40.04 133.59 41.52 133.59 43.08V54H126.87V28.62H132.93Z" fill="#11161E"/>
</svg>
