<svg width="139" height="49" viewBox="0 0 139 49" fill="none" xmlns="http://www.w3.org/2000/svg">
<path d="M70.3508 43.8731H73.5079L70.9517 45.8262L71.9293 49L69.3789 47.0325L66.8228 49L67.8148 45.8262L65.25 43.8731H68.4071L69.3789 40.7051L70.3508 43.8731Z" fill="#FF6F61"/>
<path d="M80.3089 38.358C80.3089 39.1478 79.662 39.7941 78.8626 39.7941C78.0719 39.7941 77.4336 39.1478 77.4336 38.358C77.4336 37.5681 78.0719 36.9219 78.8626 36.9219C79.662 36.9219 80.3089 37.5681 80.3089 38.358Z" fill="#FF6F61"/>
<path d="M60.7913 39.7955C60.7913 40.5853 60.1444 41.2316 59.345 41.2316C58.5514 41.2316 57.916 40.5853 57.916 39.7955C57.916 39.0056 58.5514 38.3594 59.345 38.3594C60.1444 38.3594 60.7913 39.0056 60.7913 39.7955Z" fill="#FF6F61"/>
<path d="M136.541 1.38867C137.898 1.38867 139 2.48585 139 3.84154C139 5.19722 137.896 6.2944 136.541 6.2944C135.176 6.2944 134.08 5.19434 134.08 3.84154C134.077 2.48585 135.176 1.38867 136.541 1.38867Z" fill="#FF6F61"/>
<path d="M71.3142 34.5447L69.3705 33.054L67.4383 34.5447L68.1859 32.1321L66.2422 30.6529H68.6373L69.3705 28.2402L70.1123 30.6529H72.5132L70.5638 32.1321L71.3142 34.5447Z" fill="#FF6F61"/>
<path d="M1.19325 6.29875L1.94084 3.88897L0 2.40691H2.39225L3.13408 0L3.86728 2.40691H6.26241L4.32733 3.88897L5.06915 6.29875L3.13408 4.80807L1.19325 6.29875Z" fill="#FF6F61"/>
<path fill-rule="evenodd" clip-rule="evenodd" d="M86.3578 40.27C84.9489 43.777 80.82 46.7554 77.2258 44.4835C75.2994 43.2485 74.3304 40.8042 73.8991 38.6874C73.5512 36.3265 73.9854 33.7788 74.9429 31.6764C75.9147 29.482 77.2258 27.8161 78.8073 26.4202C79.598 26.8511 80.3887 27.2072 81.2628 27.4686C85.1185 28.9593 89.5983 29.7462 93.7214 29.1345C98.02 28.5227 102.408 25.8027 104.254 21.8534C106.094 21.9425 107.928 21.9425 109.688 21.9425C113.029 21.8534 116.448 21.8534 119.691 21.0664C123.116 20.1847 126.353 18.5188 129.252 16.4163C131.882 14.5781 134.95 11.5939 135.658 8.26215C135.753 7.73653 135.229 7.47516 134.873 7.73653C133.91 8.70159 133.033 9.84186 132.069 10.7121C131.011 11.6801 129.781 12.4728 128.461 13.1707C125.916 14.4805 123.205 14.8366 120.396 15.2732C118.023 15.7098 115.919 15.974 113.377 16.1492C110.827 16.3302 108.285 16.4135 105.826 16.4135H105.041C104.694 14.6643 103.543 13.0875 101.706 12.4728C99.5123 11.7691 97.1488 12.7313 95.392 13.9577C98.112 12.2086 102.503 12.1166 103.9 15.5374C104.081 15.885 104.167 16.1492 104.167 16.5025C102.155 16.5915 100.22 16.7667 98.1954 16.9391C95.6594 17.2033 93.1147 17.4676 90.5672 18.0822C86.8811 19.0473 83.2007 20.6241 80.0465 22.9018C78.6319 22.02 77.407 21.0607 76.1792 20.0956C75.3023 19.3948 74.4282 18.694 73.5541 18.0822C73.902 17.8122 74.247 17.6399 74.5978 17.3814C76.5243 16.2383 78.1114 15.3622 79.9487 14.4776C82.2346 13.435 84.2473 12.2918 86.7977 11.9386C88.0226 11.7634 89.2503 11.7634 90.4781 11.8553C91.703 12.0276 92.7553 12.378 93.9888 12.5532C94.4288 12.6394 94.6013 12.1166 94.3368 11.8553C92.1458 9.83899 88.4596 9.22146 85.6533 9.22146C82.5825 9.22146 79.4254 9.66378 76.6192 10.8012C73.9854 11.8553 71.6161 13.435 69.4223 15.0147C67.1393 13.435 64.7672 11.8553 62.1391 10.8012C59.3328 9.66378 56.17 9.22146 53.1021 9.22146C50.2929 9.22146 46.6097 9.83899 44.4992 11.8553C44.1513 12.1166 44.4158 12.6394 44.7637 12.5532C45.9943 12.3751 47.0496 12.0247 48.2745 11.8553C49.5051 11.7662 50.7299 11.7662 51.9606 11.9386C54.511 12.2918 56.5179 13.435 58.8038 14.4776C60.6411 15.3622 62.2225 16.2354 64.1576 17.3814C64.5055 17.6399 64.862 17.8122 65.21 18.0822C64.3359 18.694 63.4503 19.3948 62.5733 20.0956C61.4347 21.0607 60.1178 22.02 58.7118 22.9018C55.5576 20.6241 51.8715 19.0473 48.1824 18.0822C45.7298 17.4647 43.096 17.2004 40.5485 16.9391C38.5329 16.7639 36.5979 16.5915 34.5823 16.5025C34.6714 16.1492 34.6714 15.885 34.8497 15.5374C36.2528 12.1195 40.6377 12.2086 43.3577 13.9577C43.3577 13.9577 43.444 13.9577 43.3577 13.9577C41.6009 12.7284 39.2316 11.7662 37.0349 12.4728C35.1976 13.0875 34.0561 14.6643 33.7082 16.4135H32.9204C30.4648 16.4135 27.9173 16.3302 25.3784 16.1492C22.8281 15.9769 20.7233 15.7126 18.3541 15.2732C15.5449 14.8366 12.8278 14.4805 10.2831 13.1707C8.96624 12.4728 7.73273 11.6772 6.69188 10.7121C5.72577 9.84186 4.85168 8.70159 3.87983 7.73653C3.53192 7.47229 3.00286 7.73653 3.09199 8.26215C3.79357 11.5939 6.86151 14.5781 9.49816 16.4163C12.3878 18.5188 15.6369 20.1875 19.0585 21.0664C22.3047 21.8505 25.7292 21.8505 29.0617 21.9425C30.8156 21.9425 32.6587 21.9425 34.4989 21.8534C36.3448 25.8027 40.7297 28.5227 45.0311 29.1345C49.1514 29.7462 53.6283 28.9593 57.576 27.4686C58.3639 27.2043 59.1575 26.8511 59.9424 26.4202C61.521 27.8161 62.8407 29.4849 63.8039 31.6764C64.7672 33.7788 65.2128 36.3265 64.862 38.6874C64.4192 40.8014 63.4503 43.2485 61.521 44.4835C57.924 46.7554 53.8008 43.777 52.4005 40.27C53.2746 42.6367 54.764 45.0896 57.4035 45.8852C59.9424 46.6635 62.4037 45.5376 63.9793 43.5127C68.2808 38.0814 65.9978 30.2747 61.6101 25.5385C62.2254 25.1852 62.8407 24.8376 63.4532 24.4844C65.3825 23.436 67.3176 22.2957 69.0686 21.0693L69.4223 20.8941L69.6811 21.0693C71.435 22.2986 73.3701 23.436 75.2994 24.4844C75.9147 24.8376 76.5214 25.1852 77.1425 25.5385C72.7548 30.2719 70.4746 38.0814 74.7732 43.5127C76.3518 45.5376 78.8073 46.6664 81.3577 45.8852C83.9799 45.0896 85.4751 42.6396 86.3578 40.27ZM56.6071 24.312C51.3453 27.2963 45.2094 29.0454 39.6802 25.8056C38.1016 24.8405 36.6036 23.4389 35.7295 21.7673C36.6036 21.7673 37.5668 21.684 38.4582 21.684C44.2375 21.3278 51.1728 21.5892 56.6071 24.312ZM82.1426 24.312C87.5884 21.5921 94.5179 21.3278 100.303 21.6811C101.18 21.6811 102.152 21.7644 103.106 21.7644C102.152 23.436 100.651 24.8376 99.0752 25.8027C93.546 29.0454 87.4015 27.2963 82.1426 24.312Z" fill="#FF6F61"/>
</svg>
